<svg id="Layer_1" data-name="Layer 1" xmlns="http://www.w3.org/2000/svg" width="472.18" height="67.57" viewBox="0 0 472.18 67.57"><title>logo</title><path d="M99.6.1c0-.1,0-.1-.1-.1C85.2,4.5,67.8,4.2,53,1.9,36.7-.7,23,1.4,14.2,7.5a10.47,10.47,0,0,0-1.1.8A33.46,33.46,0,0,0,.3,30.7C-.9,40.2,1.8,55.2,13,57.6a13.82,13.82,0,0,0,12.5-3.9c4-4.2,3.2-9.9,5.2-15,2.1-5.4,7.3-8.6,11.8-11.8,5.6-4,8.9-7.7,11.1-14.3a20.14,20.14,0,0,1,4.2,5.2c2.7,4.7.7,10.5.7,10.5-.1,2.5,2.1,4.7,3.9,6.2a3.46,3.46,0,0,1,1,1.1,2.38,2.38,0,0,1-.1,2.1c-.1.2-.3.3-.5.5l-1.5,1a1.12,1.12,0,0,0-.1,1.3,1.24,1.24,0,0,1,1.1,1.6,3,3,0,0,1-2,2.4c1.9,1.1,1.5,3,.5,3.3a1.72,1.72,0,0,0-1,.8l.5,1.6c.8,4.7-3.4,4.4-3.4,4.4l-4.3-.5A10.48,10.48,0,0,0,43.8,57L33.2,67c-.1.1,0,.2.1.3C103.8,71.7,99.6,21.7,99.6.1Z" transform="translate(-0.04)" style="fill:#fff"/><path d="M114,43.11a9.87,9.87,0,0,0,5,1.41c2.85,0,4.51-1.5,4.51-3.68,0-2-1.15-3.17-4.06-4.29-3.52-1.25-5.7-3.07-5.7-6.11,0-3.36,2.78-5.86,7-5.86a9.8,9.8,0,0,1,4.77,1.06l-.77,2.27a8.59,8.59,0,0,0-4.1-1c-2.94,0-4.06,1.76-4.06,3.23,0,2,1.31,3,4.29,4.16,3.65,1.41,5.5,3.17,5.5,6.34,0,3.33-2.46,6.21-7.55,6.21a11.15,11.15,0,0,1-5.5-1.38Z" transform="translate(-0.04)" style="fill:#fff"/><path d="M138.78,46.5l-.22-2h-.1a5.77,5.77,0,0,1-4.74,2.3A4.41,4.41,0,0,1,129,42.4c0-3.74,3.33-5.79,9.31-5.76v-.32c0-1.28-.35-3.58-3.52-3.58a7.71,7.71,0,0,0-4,1.15L130.11,32a9.61,9.61,0,0,1,5.09-1.38c4.74,0,5.89,3.23,5.89,6.34v5.79a21.76,21.76,0,0,0,.26,3.71Zm-5.5-21.82a2.34,2.34,0,0,0,2.3,2.21,2.27,2.27,0,0,0,2.3-2.21h1.66a4,4,0,0,1-7.94,0Zm5.09,13.92c-3.07-.06-6.56.48-6.56,3.49a2.49,2.49,0,0,0,2.66,2.69,3.85,3.85,0,0,0,3.74-2.59,3,3,0,0,0,.16-.9Z" transform="translate(-0.04)" style="fill:#fff"/><path d="M145.63,35.21c0-1.6,0-2.91-.13-4.19H148l.16,2.56h.06a5.7,5.7,0,0,1,5.12-2.91c2.14,0,5.47,1.28,5.47,6.59V46.5H156V37.57c0-2.5-.93-4.58-3.58-4.58a4,4,0,0,0-3.78,2.88,4,4,0,0,0-.19,1.31V46.5h-2.82Z" transform="translate(-0.04)" style="fill:#fff"/><path d="M172,46.5l-.22-2h-.1a5.77,5.77,0,0,1-4.74,2.3,4.41,4.41,0,0,1-4.74-4.45c0-3.74,3.33-5.79,9.31-5.76v-.32c0-1.28-.35-3.58-3.52-3.58a7.71,7.71,0,0,0-4,1.15L163.29,32a9.61,9.61,0,0,1,5.09-1.38c4.74,0,5.89,3.23,5.89,6.34v5.79a21.76,21.76,0,0,0,.26,3.71Zm-5.5-21.82a2.34,2.34,0,0,0,2.3,2.21,2.27,2.27,0,0,0,2.3-2.21h1.66a4,4,0,0,1-7.94,0Zm5.09,13.92c-3.07-.06-6.56.48-6.56,3.49a2.49,2.49,0,0,0,2.66,2.69,3.85,3.85,0,0,0,3.74-2.59,3,3,0,0,0,.16-.9Z" transform="translate(-0.04)" style="fill:#fff"/><path d="M182.08,26.57V31h4v2.14h-4v8.35c0,1.92.54,3,2.11,3a6.27,6.27,0,0,0,1.63-.19l.13,2.11a6.88,6.88,0,0,1-2.5.38,3.9,3.9,0,0,1-3-1.18c-.8-.83-1.09-2.21-1.09-4V33.16h-2.4V31h2.4V27.3Z" transform="translate(-0.04)" style="fill:#fff"/><path d="M197.85,46.5l-.22-2h-.1a5.77,5.77,0,0,1-4.74,2.3,4.41,4.41,0,0,1-4.74-4.45c0-3.74,3.33-5.79,9.31-5.76v-.32c0-1.28-.35-3.58-3.52-3.58a7.71,7.71,0,0,0-4,1.15L189.18,32a9.61,9.61,0,0,1,5.09-1.38c4.74,0,5.89,3.23,5.89,6.34v5.79a21.76,21.76,0,0,0,.26,3.71Zm-.42-7.9c-3.07-.06-6.56.48-6.56,3.49a2.49,2.49,0,0,0,2.66,2.69,3.85,3.85,0,0,0,3.74-2.59,3,3,0,0,0,.16-.9Z" transform="translate(-0.04)" style="fill:#fff"/><path d="M208,26.57V31h4v2.14h-4v8.35c0,1.92.54,3,2.11,3a6.27,6.27,0,0,0,1.63-.19l.13,2.11a6.88,6.88,0,0,1-2.5.38,3.9,3.9,0,0,1-3-1.18c-.8-.83-1.09-2.21-1.09-4V33.16h-2.4V31h2.4V27.3Z" transform="translate(-0.04)" style="fill:#fff"/><path d="M216.54,39.27c.06,3.81,2.5,5.38,5.31,5.38a10.18,10.18,0,0,0,4.29-.8l.48,2a12.55,12.55,0,0,1-5.15,1c-4.77,0-7.62-3.14-7.62-7.81s2.75-8.35,7.26-8.35c5.06,0,6.4,4.45,6.4,7.3a10.57,10.57,0,0,1-.1,1.31Zm8.26-2c0-1.79-.74-4.58-3.9-4.58-2.85,0-4.1,2.62-4.32,4.58Z" transform="translate(-0.04)" style="fill:#fff"/><path d="M239.58,46.5l-.22-2h-.1a5.77,5.77,0,0,1-4.74,2.3,4.41,4.41,0,0,1-4.74-4.45c0-3.74,3.33-5.79,9.31-5.76v-.32c0-1.28-.35-3.58-3.52-3.58a7.71,7.71,0,0,0-4,1.15L230.91,32A9.61,9.61,0,0,1,236,30.66c4.74,0,5.89,3.23,5.89,6.34v5.79a21.76,21.76,0,0,0,.26,3.71Zm-.42-7.9c-3.07-.06-6.56.48-6.56,3.49a2.49,2.49,0,0,0,2.66,2.69A3.85,3.85,0,0,0,239,42.18a3,3,0,0,0,.16-.9Z" transform="translate(-0.04)" style="fill:#fff"/><path d="M253.5,46.5V33.16h-2.18V31h2.18v-.74c0-2.18.48-4.16,1.79-5.41a5.39,5.39,0,0,1,3.78-1.44,6.53,6.53,0,0,1,2.4.45l-.38,2.18a4.2,4.2,0,0,0-1.79-.35c-2.4,0-3,2.11-3,4.48V31H260v2.14h-3.74V46.5Z" transform="translate(-0.04)" style="fill:#fff"/><path d="M263.71,39.27c.06,3.81,2.5,5.38,5.31,5.38a10.17,10.17,0,0,0,4.29-.8l.48,2a12.56,12.56,0,0,1-5.15,1c-4.77,0-7.62-3.14-7.62-7.81s2.75-8.35,7.26-8.35c5.06,0,6.4,4.45,6.4,7.3a10.79,10.79,0,0,1-.1,1.31Zm8.26-2c0-1.79-.74-4.58-3.9-4.58-2.85,0-4.1,2.62-4.32,4.58Z" transform="translate(-0.04)" style="fill:#fff"/><path d="M278.17,35.21c0-1.6,0-2.91-.13-4.19h2.46l.13,2.5h.1a5.34,5.34,0,0,1,4.86-2.85,4.58,4.58,0,0,1,4.38,3.1H290a6.37,6.37,0,0,1,1.73-2,5.28,5.28,0,0,1,3.42-1.09c2,0,5.09,1.34,5.09,6.72V46.5h-2.75V37.73c0-3-1.09-4.77-3.36-4.77a3.65,3.65,0,0,0-3.33,2.56,4.65,4.65,0,0,0-.22,1.41V46.5h-2.75V37.22c0-2.46-1.09-4.26-3.23-4.26a4.2,4.2,0,0,0-3.71,4.19V46.5h-2.75Z" transform="translate(-0.04)" style="fill:#fff"/><path d="M306.43,39.27c.06,3.81,2.5,5.38,5.31,5.38a10.17,10.17,0,0,0,4.29-.8l.48,2a12.56,12.56,0,0,1-5.15,1c-4.77,0-7.62-3.14-7.62-7.81s2.75-8.35,7.26-8.35c5.06,0,6.4,4.45,6.4,7.3a10.79,10.79,0,0,1-.1,1.31Zm8.26-2c0-1.79-.74-4.58-3.9-4.58-2.85,0-4.1,2.62-4.32,4.58Z" transform="translate(-0.04)" style="fill:#fff"/><path d="M324,26.66a1.74,1.74,0,0,1-3.49,0,1.72,1.72,0,0,1,1.76-1.76A1.67,1.67,0,0,1,324,26.66ZM320.89,46.5V31h2.82V46.5Z" transform="translate(-0.04)" style="fill:#fff"/><path d="M331.52,26.66a1.74,1.74,0,0,1-3.49,0,1.72,1.72,0,0,1,1.76-1.76A1.67,1.67,0,0,1,331.52,26.66ZM328.38,46.5V31h2.82V46.5Z" transform="translate(-0.04)" style="fill:#fff"/><path d="M342.75,25.22a29,29,0,0,1,5.34-.45c3,0,4.9.54,6.24,1.76a5.37,5.37,0,0,1,1.7,4.1,5.66,5.66,0,0,1-4.06,5.5v.1c1.66.58,2.66,2.11,3.17,4.35a34.41,34.41,0,0,0,1.66,5.92h-2.88a28,28,0,0,1-1.44-5.15c-.64-3-1.79-4.1-4.32-4.19h-2.62V46.5h-2.78ZM345.53,35h2.85c3,0,4.86-1.63,4.86-4.1,0-2.78-2-4-5-4a11.46,11.46,0,0,0-2.75.26Z" transform="translate(-0.04)" style="fill:#fff"/><path d="M378.49,35.49c0,7.42-4.51,11.36-10,11.36-5.7,0-9.7-4.42-9.7-10.94,0-6.85,4.25-11.33,10-11.33S378.49,29.09,378.49,35.49Zm-16.73.35c0,4.61,2.5,8.74,6.88,8.74s6.91-4.06,6.91-9c0-4.29-2.24-8.77-6.88-8.77S361.76,31.11,361.76,35.84Z" transform="translate(-0.04)" style="fill:#fff"/><path d="M400.28,37c-.16-3-.35-6.62-.32-9.31h-.1c-.74,2.53-1.63,5.22-2.72,8.19l-3.81,10.46h-2.11L387.74,36.1c-1-3-1.89-5.82-2.5-8.38h-.06c-.06,2.69-.22,6.3-.42,9.54l-.58,9.25h-2.66L383,24.93h3.55l3.68,10.43c.9,2.66,1.63,5,2.18,7.26h.1c.54-2.18,1.31-4.54,2.27-7.26l3.84-10.43h3.55l1.34,21.57h-2.72Z" transform="translate(-0.04)" style="fill:#fff"/><path d="M411,39.72l-2.24,6.78h-2.88l7.33-21.57h3.36l7.36,21.57h-3l-2.3-6.78Zm5.06-19.58,3.36,3.65h-2.37l-2-2.21H415l-2,2.21h-2.27l3.26-3.65Zm2,17.41L416,31.33c-.48-1.41-.8-2.69-1.12-3.94h-.06c-.32,1.28-.67,2.59-1.09,3.9l-2.11,6.24Z" transform="translate(-0.04)" style="fill:#fff"/><path d="M427.1,46.5V24.93h3l6.91,10.91a61.05,61.05,0,0,1,3.87,7l.06,0c-.26-2.88-.32-5.5-.32-8.86v-9h2.62V46.5h-2.82l-6.85-10.94a68.43,68.43,0,0,1-4-7.2l-.1,0c.16,2.72.22,5.31.22,8.9V46.5Z" transform="translate(-0.04)" style="fill:#fff"/><path d="M450.94,24.93V46.5h-2.78V24.93Z" transform="translate(-0.04)" style="fill:#fff"/><path d="M459.29,39.72l-2.24,6.78h-2.88l7.33-21.57h3.36l7.36,21.57h-3l-2.3-6.78Zm7.07-2.18-2.11-6.21c-.48-1.41-.8-2.69-1.12-3.94h-.06c-.32,1.28-.67,2.59-1.09,3.9l-2.11,6.24Z" transform="translate(-0.04)" style="fill:#fff"/></svg>